<svg xmlns="http://www.w3.org/2000/svg" width="128" height="128" viewBox="0 0 128 128"><circle cx="64" cy="64" r="50" fill="none" stroke="blue" stroke-width="4" /><line x1="64" y1="64" x2="114.0" y2="64.0" stroke="black" stroke-width="2" /><line x1="64" y1="64" x2="99.35533905932738" y2="99.35533905932738" stroke="black" stroke-width="2" /><line x1="64" y1="64" x2="64.0" y2="114.0" stroke="black" stroke-width="2" /><line x1="64" y1="64" x2="28.64466094067263" y2="99.35533905932738" stroke="black" stroke-width="2" /><line x1="64" y1="64" x2="14.0" y2="64.0" stroke="black" stroke-width="2" /><line x1="64" y1="64" x2="28.644660940672615" y2="28.64466094067263" stroke="black" stroke-width="2" /><line x1="64" y1="64" x2="63.99999999999999" y2="14.0" stroke="black" stroke-width="2" /><line x1="64" y1="64" x2="99.35533905932738" y2="28.644660940672615" stroke="black" stroke-width="2" /><polygon points="44,120 64,64 84,120" fill="gray" /><circle cx="114.0" cy="64.0" r="5" fill="red" stroke="black" stroke-width="1" /><circle cx="99.35533905932738" cy="99.35533905932738" r="5" fill="red" stroke="black" stroke-width="1" /><circle cx="64.0" cy="114.0" r="5" fill="red" stroke="black" stroke-width="1" /><circle cx="28.64466094067263" cy="99.35533905932738" r="5" fill="red" stroke="black" stroke-width="1" /><circle cx="14.0" cy="64.0" r="5" fill="red" stroke="black" stroke-width="1" /><circle cx="28.644660940672615" cy="28.64466094067263" r="5" fill="red" stroke="black" stroke-width="1" /><circle cx="63.99999999999999" cy="14.0" r="5" fill="red" stroke="black" stroke-width="1" /><circle cx="99.35533905932738" cy="28.644660940672615" r="5" fill="red" stroke="black" stroke-width="1" /></svg>